<?xml version="1.0" encoding="UTF-8" standalone="no" ?>
<!DOCTYPE svg PUBLIC "-//W3C//DTD SVG 1.1//EN" "http://www.w3.org/Graphics/SVG/1.1/DTD/svg11.dtd">
<svg xmlns="http://www.w3.org/2000/svg" xmlns:xlink="http://www.w3.org/1999/xlink" version="1.1" width="530" height="400" viewBox="0 0 530 400" xml:space="preserve">
<desc>Created with Fabric.js 5.2.4</desc>
<defs>
</defs>
<rect x="0" y="0" width="100%" height="100%" fill="transparent"></rect>
<g transform="matrix(1 0 0 1 540 540)" id="1511404e-47b5-495d-9211-e0c6d264a7c2"  >
</g>
<g transform="matrix(1 0 0 1 540 540)" id="b3dbbadd-1306-4ac8-8c71-f16d593f18b2"  >
<rect style="stroke: none; stroke-width: 1; stroke-dasharray: none; stroke-linecap: butt; stroke-dashoffset: 0; stroke-linejoin: miter; stroke-miterlimit: 4; fill: rgb(255,255,255); fill-rule: nonzero; opacity: 1; visibility: hidden;" vector-effect="non-scaling-stroke"  x="-540" y="-540" rx="0" ry="0" width="1080" height="1080" />
</g>
<g transform="matrix(1 0 0 1 540 540)"  >
<rect style="stroke: none; stroke-width: 1; stroke-dasharray: none; stroke-linecap: butt; stroke-dashoffset: 0; stroke-linejoin: miter; stroke-miterlimit: 4; fill: rgb(255,255,255); fill-rule: nonzero; opacity: 1; visibility: hidden;" vector-effect="non-scaling-stroke"  x="-540" y="-540" rx="0" ry="0" width="1080" height="1080" />
</g>
<g transform="matrix(1 0 0 1 694.62 637.12)"  >
<rect style="stroke: none; stroke-width: 1; stroke-dasharray: none; stroke-linecap: butt; stroke-dashoffset: 0; stroke-linejoin: miter; stroke-miterlimit: 4; fill: rgb(255,255,255); fill-rule: nonzero; opacity: 1; visibility: hidden;" vector-effect="non-scaling-stroke"  x="-540" y="-540" rx="0" ry="0" width="1080" height="1080" />
</g>
<g transform="matrix(1 0 0 1 385.38 442.88)"  >
<rect style="stroke: none; stroke-width: 1; stroke-dasharray: none; stroke-linecap: butt; stroke-dashoffset: 0; stroke-linejoin: miter; stroke-miterlimit: 4; fill: rgb(255,255,255); fill-rule: nonzero; opacity: 1; visibility: hidden;" vector-effect="non-scaling-stroke"  x="-540" y="-540" rx="0" ry="0" width="1080" height="1080" />
</g>
<g transform="matrix(1 0 0 1 385.38 442.88)"  >
<rect style="stroke: none; stroke-width: 1; stroke-dasharray: none; stroke-linecap: butt; stroke-dashoffset: 0; stroke-linejoin: miter; stroke-miterlimit: 4; fill: rgb(255,255,255); fill-rule: nonzero; opacity: 1; visibility: hidden;" vector-effect="non-scaling-stroke"  x="-540" y="-540" rx="0" ry="0" width="1080" height="1080" />
</g>
<g transform="matrix(1 0 0 1 295.34 285.01)"  >
<path style="stroke: none; stroke-width: 1; stroke-dasharray: none; stroke-linecap: butt; stroke-dashoffset: 0; stroke-linejoin: miter; stroke-miterlimit: 4; fill: rgb(255,208,47); fill-rule: nonzero; opacity: 1;" vector-effect="non-scaling-stroke"  transform=" translate(3.22, -59.84)" d="M 0 0 C 4.28727005 2.78481898 6.09394645 5.56727099 8.15625 10.19140625 C 8.70410156 11.38314453 9.25195312 12.57488281 9.81640625 13.80273438 C 10.66274081 15.685964 11.5039562 17.57139171 12.34326172 19.45776367 C 13.16443695 21.29121272 14.0038903 23.11644053 14.84375 24.94140625 C 15.57368164 26.57638062 15.57368164 26.57638062 16.31835938 28.24438477 C 18.25873208 31.42397053 19.6119793 32.50483303 23 34 C 25.99715738 34.71657679 25.99715738 34.71657679 29.21875 35.0625 C 30.98798828 35.29839844 30.98798828 35.29839844 32.79296875 35.5390625 C 34.01628906 35.69117188 35.23960937 35.84328125 36.5 36 C 38.92841804 36.30195293 41.3555977 36.61407969 43.78125 36.9375 C 44.85439453 37.07027344 45.92753906 37.20304687 47.03320312 37.33984375 C 51.20924768 38.26907552 53.99344756 39.99344756 57 43 C 57.88206432 46.76243364 57.88533167 50.42903552 55.9609375 53.84375 C 54.08667783 56.03519208 52.07982676 57.99979907 50 60 C 48.05907061 61.9319166 46.1254131 63.87096999 44.19165039 65.81005859 C 42.82266266 67.17791426 41.44819921 68.54031325 40.06811523 69.89697266 C 39.42946533 70.52651855 38.79081543 71.15606445 38.1328125 71.8046875 C 37.55418457 72.37171387 36.97555664 72.93874023 36.37939453 73.52294922 C 34.46920483 75.56837359 33.9972825 76.58150567 34.015625 79.40625 C 34.58559609 86.92986836 35.61433005 94.2398236 37.07128906 101.64257812 C 37.94220628 106.35602407 38.06941008 110.24441102 37 115 C 35.21672252 117.33670843 33.82062322 118.60383707 31.1875 119.875 C 22.79213268 120.35473528 14.98292938 114.21443567 8.09375 110.16796875 C 0.98914951 105.97779233 0.98914951 105.97779233 -7 106 C -11.18944926 107.89879336 -15.14629633 110.13467454 -19.125 112.4375 C -21.24924152 113.65043935 -23.37673462 114.85770615 -25.5078125 116.05859375 C -26.44254395 116.59798584 -27.37727539 117.13737793 -28.34033203 117.69311523 C -31.983668 119.48334632 -34.65924737 120.3511495 -38.625 119.3125 C -41.46393182 117.74361663 -42.57088027 116.9334563 -44 114 C -44.48285212 105.23712824 -42.77116351 96.91487924 -41.15820312 88.33007812 C -40.96806641 87.21697266 -40.77792969 86.10386719 -40.58203125 84.95703125 C -40.39874268 83.95647705 -40.2154541 82.95592285 -40.02661133 81.92504883 C -39.98252585 77.07928628 -42.04788155 74.09520517 -45.16064453 70.51464844 C -45.97645996 69.7209082 -46.79227539 68.92716797 -47.6328125 68.109375 C -48.52097656 67.23539062 -49.40914062 66.36140625 -50.32421875 65.4609375 C -51.71060547 64.11902344 -51.71060547 64.11902344 -53.125 62.75 C -54.9629912 60.95522575 -56.79903395 59.15845323 -58.6328125 57.359375 C -59.44637207 56.57014648 -60.25993164 55.78091797 -61.09814453 54.96777344 C -63.15026964 52.84452205 -63.99147695 51.89832968 -64.01953125 48.94140625 C -63.95121094 48.15636719 -63.88289062 47.37132812 -63.8125 46.5625 C -63.72935547 45.38880859 -63.72935547 45.38880859 -63.64453125 44.19140625 C -63 42 -63 42 -61.40234375 40.30859375 C -58.22727628 38.57908546 -55.31541452 38.09660323 -51.75 37.5 C -51.05559814 37.37818359 -50.36119629 37.25636719 -49.64575195 37.13085938 C -46.67937668 36.61096886 -43.70882222 36.11749956 -40.73779297 35.625 C -38.55262866 35.25945737 -36.37018258 34.88003409 -34.1875 34.5 C -33.51235352 34.39365234 -32.83720703 34.28730469 -32.14160156 34.17773438 C -28.38365097 33.52100515 -26.40090984 32.95496596 -24 30 C -22.93913792 28.00051363 -21.94849759 25.96321896 -21.00390625 23.90625 C -20.16569336 22.11380859 -20.16569336 22.11380859 -19.31054688 20.28515625 C -18.43366377 18.39085288 -17.56024027 16.4950652 -16.69116211 14.59716797 C -15.84621819 12.75846697 -14.98771847 10.9260145 -14.12890625 9.09375 C -13.62431885 7.99740234 -13.11973145 6.90105469 -12.59985352 5.77148438 C -9.42193676 0.26626372 -6.25936547 -0.768694 0 0 Z" stroke-linecap="round" />
</g>
<g transform="matrix(0.99 -0.16 0.16 0.99 447.35 307.4)"  >
<path style="stroke: none; stroke-width: 1; stroke-dasharray: none; stroke-linecap: butt; stroke-dashoffset: 0; stroke-linejoin: miter; stroke-miterlimit: 4; fill: rgb(255,208,47); fill-rule: nonzero; opacity: 1;" vector-effect="non-scaling-stroke"  transform=" translate(-4.04, -43.98)" d="M 0 0 C 4.97670093 0.99534019 6.1444752 3.04925198 8.9765625 7.0859375 C 9.85441406 8.40464844 9.85441406 8.40464844 10.75 9.75 C 12.03987088 11.58459723 13.33148967 13.417967 14.625 15.25 C 15.19992187 16.0853125 15.77484375 16.920625 16.3671875 17.78125 C 17.60194147 19.65934588 17.60194147 19.65934588 18.75 20.75 C 20.39886706 20.84681559 22.05144053 20.88200752 23.703125 20.890625 C 25.22099609 20.91962891 25.22099609 20.91962891 26.76953125 20.94921875 C 28.90736568 20.98282437 31.04549681 21.00128282 33.18359375 21.00390625 C 38.03818002 21.1208101 40.92315374 21.20530033 45.046875 23.921875 C 46.75 26.75 46.75 26.75 46.9453125 29.54296875 C 44.98240355 34.80946628 41.40090694 38.87936608 37.87890625 43.20898438 C 34.99840254 47.00038723 33.2942545 49.54733668 33.75390625 54.41015625 C 34.45246982 58.0148534 35.50742963 61.44158906 36.8125 64.875 C 39.63485469 73.03077496 39.63485469 73.03077496 38.75 77.75 C 36.8125 80.3125 36.8125 80.3125 33.75 81.75 C 29.14838774 81.23046313 25.40151519 79.99882336 21.078125 78.34765625 C 13.72805514 75.29446787 13.72805514 75.29446787 6.0625 75.875 C 4.92256242 76.79049392 3.82485354 77.75890128 2.75 78.75 C 1.27169836 79.93022447 -0.20810503 81.10890033 -1.70825195 82.26123047 C -3.25450145 83.45521464 -4.77059834 84.6879382 -6.28515625 85.921875 C -9.64113784 87.9911759 -11.38085072 88.21848674 -15.25 87.75 C -17.0625 86.6875 -17.0625 86.6875 -18.25 84.75 C -19.45299774 78.52787261 -19.23098839 72.53255364 -18.859375 66.24609375 C -18.74976676 62.18373823 -18.79219993 60.35547751 -21.30859375 57.02734375 C -25.29411697 53.94160665 -29.33772527 50.93772272 -33.51757812 48.11914062 C -37.94560578 44.86254886 -37.94560578 44.86254886 -38.80615234 41.71728516 C -38.91796875 39.58203125 -38.91796875 39.58203125 -38.25 35.75 C -35.65641381 33.32726172 -33.19685272 32.22728219 -29.80859375 31.28515625 C -28.56239258 30.92067383 -28.56239258 30.92067383 -27.29101562 30.54882812 C -25.55273835 30.05720732 -23.81313877 29.5702386 -22.07226562 29.08789062 C -20.82799805 28.72147461 -20.82799805 28.72147461 -19.55859375 28.34765625 C -18.80376709 28.13633057 -18.04894043 27.92500488 -17.27124023 27.70727539 C -14.01957475 26.16726085 -12.69511997 23.88456651 -11.40625 20.59936523 C -11.1896875 19.84341064 -10.973125 19.08745605 -10.75 18.30859375 C -10.5025 17.47779297 -10.255 16.64699219 -10 15.79101562 C -9.49896086 14.0517313 -8.99896498 12.31214612 -8.5 10.57226562 C -8.2525 9.74275391 -8.005 8.91324219 -7.75 8.05859375 C -7.5334375 7.30376709 -7.316875 6.54894043 -7.09375 5.77124023 C -5.52429825 2.01154953 -3.95433184 0.91253812 0 0 Z" stroke-linecap="round" />
</g>
<g transform="matrix(1 -0.06 0.06 1 137.55 309.54)"  >
<path style="stroke: none; stroke-width: 1; stroke-dasharray: none; stroke-linecap: butt; stroke-dashoffset: 0; stroke-linejoin: miter; stroke-miterlimit: 4; fill: rgb(255,208,47); fill-rule: nonzero; opacity: 1;" vector-effect="non-scaling-stroke"  transform=" translate(15.88, -44.26)" d="M 0 0 C 2.6875 1.8125 2.6875 1.8125 4 5.375 C 4.5453329 8.58931797 4.73951545 11.75945598 4.84375 15.01171875 C 4.87170654 15.75929443 4.89966309 16.50687012 4.9284668 17.27709961 C 4.9754653 18.77864564 4.99849899 20.28116916 4.99536133 21.78344727 C 5.09269179 25.53903096 5.48167294 27.542928 7.78125 30.5546875 C 11.57926676 33.50529729 15.57658124 35.91452961 19.77929688 38.2421875 C 23.20609302 40.29460016 24.61868153 41.65544827 26.23828125 45.3515625 C 26.71236058 49.00403452 26.72416964 49.89200665 24.6875 52.8125 C 22.48852539 53.96582031 22.48852539 53.96582031 19.78515625 54.890625 C 18.32625977 55.42623047 18.32625977 55.42623047 16.83789062 55.97265625 C 14.78763514 56.69627583 12.73290426 57.40734389 10.67382812 58.10546875 C 5.3803163 59.92360782 5.3803163 59.92360782 1.39794922 63.61791992 C 0.59747387 65.68199918 0.10453011 67.63991172 -0.3125 69.8125 C -0.66304359 71.13247792 -1.01714079 72.45151786 -1.375 73.76953125 C -1.84779255 75.71389059 -2.32026505 77.65839628 -2.7734375 79.60742188 C -3.64814354 83.11700063 -4.29631187 85.66346596 -7.3125 87.8125 C -10.3125 88.8125 -10.3125 88.8125 -12.7109375 88.2109375 C -15.98691017 86.44997922 -17.65506205 84.36309917 -19.9375 81.4375 C -20.69289062 80.48101562 -21.44828125 79.52453125 -22.2265625 78.5390625 C -22.91492188 77.63929688 -23.60328125 76.73953125 -24.3125 75.8125 C -24.89773437 75.07773437 -25.48296875 74.34296875 -26.0859375 73.5859375 C -27.3125 71.8125 -27.3125 71.8125 -27.3125 69.8125 C -34.54079926 68.85987706 -41.46064013 68.78613134 -48.734375 69.11523438 C -54.72724545 69.24447359 -54.72724545 69.24447359 -57.4453125 67.23828125 C -58.74593664 63.60004886 -58.34457814 61.54653552 -57.3125 57.8125 C -55.17634531 54.10238402 -52.59173701 50.7048191 -49.99804688 47.3046875 C -47.11495702 43.27205569 -47.11495702 43.27205569 -46.33276367 38.50146484 C -47.29474206 33.86144899 -49.12095355 29.52707432 -51 25.1875 C -52.99942866 20.14469321 -54.15090269 16.98300756 -52.3125 11.8125 C -47.89276727 8.86601151 -44.3962597 9.84001299 -39.3125 10.8125 C -35.96936357 11.84989011 -32.67539616 12.95842863 -29.390625 14.16796875 C -25.57513864 14.96689673 -23.81494096 14.47697998 -20.3125 12.8125 C -17.73326738 10.81513427 -17.73326738 10.81513427 -15.375 8.4375 C -5.92201685 -0.3352085 -5.92201685 -0.3352085 0 0 Z" stroke-linecap="round" />
</g>
<g transform="matrix(1 -0.08 0.08 1 410.16 75.24)"  >
<path style="stroke: none; stroke-width: 1; stroke-dasharray: none; stroke-linecap: butt; stroke-dashoffset: 0; stroke-linejoin: miter; stroke-miterlimit: 4; fill: rgb(98,211,143); fill-rule: nonzero; opacity: 1;" vector-effect="non-scaling-stroke"  transform=" translate(32.31, -57.64)" d="M 0 0 C 2.4375 1.5625 2.4375 1.5625 4 4 C 4.42603048 9.15864013 3.769012 12.27920806 1.2109375 16.74609375 C 0.60628662 17.81811035 0.00163574 18.89012695 -0.62133789 19.99462891 C -1.28254639 21.13077637 -1.94375488 22.26692383 -2.625 23.4375 C -3.31167829 24.64172461 -3.9971256 25.84665191 -4.68139648 27.05224609 C -6.76654724 30.71382298 -8.88019133 34.3584076 -11 38 C -11.61343262 39.05622559 -12.22686523 40.11245117 -12.85888672 41.20068359 C -15.16417617 45.16419732 -17.47470204 49.12451924 -19.79736328 53.07788086 C -23.95824991 60.16798959 -28.00207874 67.31690636 -32 74.5 C -36.81732536 83.13770459 -41.67778683 91.74841669 -46.625 100.3125 C -47.49511719 101.83423828 -47.49511719 101.83423828 -48.3828125 103.38671875 C -48.929375 104.32773438 -49.4759375 105.26875 -50.0390625 106.23828125 C -50.51553223 107.06368408 -50.99200195 107.88908691 -51.48291016 108.73950195 C -53.49098588 111.73158003 -55.44544532 114.59420454 -59.03515625 115.53125 C -64.48652379 115.44722121 -64.48652379 115.44722121 -66.9375 113.3125 C -68.6329505 109.62240185 -69.43581123 107.20182499 -68.01367188 103.2800293 C -67.50384766 102.32523682 -66.99402344 101.37044434 -66.46875 100.38671875 C -65.90929687 99.33145996 -65.34984375 98.27620117 -64.7734375 97.18896484 C -62.08453337 92.35382364 -59.32737412 87.56792328 -56.5 82.8125 C -51.56170679 74.43108978 -46.72728324 66.00217853 -42 57.5 C -36.24458162 47.16154833 -30.33667696 36.92110613 -24.34375 26.71875 C -22.1274708 22.94286693 -19.9408599 19.15232313 -17.78125 15.34375 C -17.27875732 14.46122559 -16.77626465 13.57870117 -16.25854492 12.66943359 C -15.32075574 11.01931729 -14.38828912 9.36616028 -13.4621582 7.70947266 C -12.84087036 6.61965088 -12.84087036 6.61965088 -12.20703125 5.5078125 C -11.8510083 4.87504395 -11.49498535 4.24227539 -11.12817383 3.59033203 C -8.14696787 -0.6121297 -4.73654598 -0.49858379 0 0 Z" stroke-linecap="round" />
</g>
<g transform="matrix(1 0 0 1 165.83 83.98)"  >
<path style="stroke: none; stroke-width: 1; stroke-dasharray: none; stroke-linecap: butt; stroke-dashoffset: 0; stroke-linejoin: miter; stroke-miterlimit: 4; fill: rgb(92,115,188); fill-rule: nonzero; opacity: 1;" vector-effect="non-scaling-stroke"  transform=" translate(-24.59, -57.6)" d="M 0 0 C 5.36334049 5.28040224 8.66396992 12.11196509 12.3125 18.625 C 13.01824015 19.87405978 13.72463312 21.1227509 14.43164062 22.37109375 C 15.89787049 24.96114867 17.36129765 27.55275657 18.82275391 30.14550781 C 22.18896555 36.11197349 25.59669624 42.0546367 29 48 C 30.3231101 50.31499396 31.64604938 52.63008465 32.96875 54.9453125 C 33.6341025 56.10970743 34.29946715 57.27409541 34.96484375 58.43847656 C 49.28125 83.4921875 49.28125 83.4921875 51.09765625 86.69824219 C 52.45256695 89.04986081 53.82964395 91.37096505 55.24609375 93.68457031 C 55.6169812 94.30204132 55.98786865 94.91951233 56.36999512 95.55569458 C 57.4078974 97.2816208 58.460347 98.99877467 59.51367188 100.71533203 C 61.20616173 104.45560116 61.39925891 106.93821415 61 111 C 59.4375 113.4375 59.4375 113.4375 57 115 C 53.5625 115.5625 53.5625 115.5625 50 115 C 46.32463957 111.80515613 43.87860448 108.49175365 41.50390625 104.265625 C 40.8701709 103.14704102 40.23643555 102.02845703 39.58349609 100.87597656 C 38.90968594 99.66739842 38.23602434 98.45873744 37.5625 97.25 C 36.8530974 95.99145524 36.14296237 94.73332308 35.43212891 93.47558594 C 33.27712264 89.6564906 31.13727171 85.8290405 29 82 C 28.06728271 80.33130859 28.06728271 80.33130859 27.11572266 78.62890625 C 22.43110804 70.24712658 22.43110804 70.24712658 20.1550293 66.16601562 C 16.13858098 58.98151164 12.03354292 51.85310481 7.875 44.75 C 7.30160889 43.7703125 6.72821777 42.790625 6.13745117 41.78125 C 5.57002197 40.811875 5.00259277 39.8425 4.41796875 38.84375 C 0.99110256 32.98874358 -2.42337485 27.12694172 -5.8125 21.25 C -6.32248535 20.3744043 -6.8324707 19.49880859 -7.35791016 18.59667969 C -7.82374512 17.78618164 -8.28958008 16.97568359 -8.76953125 16.140625 C -9.38211792 15.08149902 -9.38211792 15.08149902 -10.00708008 14.00097656 C -11.02573031 11.94814713 -11.67925875 10.2702071 -12 8 C -9.43916734 0.80527968 -7.79458908 -0.92478175 0 0 Z" stroke-linecap="round" />
</g>
<g transform="matrix(1 -0.03 0.03 1 476.22 188.4)"  >
<path style="stroke: none; stroke-width: 1; stroke-dasharray: none; stroke-linecap: butt; stroke-dashoffset: 0; stroke-linejoin: miter; stroke-miterlimit: 4; fill: rgb(255,170,0); fill-rule: nonzero; opacity: 1;" vector-effect="non-scaling-stroke"  transform=" translate(44.19, -48.26)" d="M 0 0 C 1.875 1.0625 1.875 1.0625 3 3 C 3.70788726 6.36246448 3.92355059 7.7984724 3 11 C 1.40185547 13.17700195 1.40185547 13.17700195 -0.7578125 15.48828125 C -1.98274414 16.80058716 -1.98274414 16.80058716 -3.23242188 18.1394043 C -8.29434053 23.37145272 -13.44536939 28.50976977 -18.625 33.625 C -26.78114699 41.56800444 -26.78114699 41.56800444 -34.4609375 49.9609375 C -40.12658517 56.60681297 -46.54142187 62.59372921 -52.74804688 68.72753906 C -61.44081382 77.3214598 -61.44081382 77.3214598 -69.62646484 86.39501953 C -71.43076543 88.50335085 -73.34688243 90.47976065 -75.3125 92.4375 C -75.96863281 93.09621094 -76.62476563 93.75492187 -77.30078125 94.43359375 C -79.59706013 96.55039336 -80.7323944 96.97091243 -83.875 97.3125 C -87 97 -87 97 -89.3125 95.375 C -91.42750105 92.39833186 -92 90.66142927 -92 87 C -88.69297251 80.91434059 -83.60617208 76.41929187 -78.6875 71.625 C -71.99115949 65.11311933 -71.99115949 65.11311933 -65.70703125 58.2109375 C -59.96926802 51.51813373 -53.51754519 45.46454606 -47.25195312 39.27246094 C -41.56882703 33.65006566 -35.93102247 28.07024957 -30.74414062 21.97998047 C -26.93861239 17.65987493 -22.81791253 13.63338615 -18.75 9.5625 C -17.40421875 8.19834961 -17.40421875 8.19834961 -16.03125 6.80664062 C -15.17015625 5.94361328 -14.3090625 5.08058594 -13.421875 4.19140625 C -12.64424805 3.40967041 -11.86662109 2.62793457 -11.06542969 1.82250977 C -7.3578973 -1.44897124 -4.60226671 -1.15056668 0 0 Z" stroke-linecap="round" />
</g>
<g transform="matrix(1 -0.02 0.02 1 117.51 189.56)"  >
<path style="stroke: none; stroke-width: 1; stroke-dasharray: none; stroke-linecap: butt; stroke-dashoffset: 0; stroke-linejoin: miter; stroke-miterlimit: 4; fill: rgb(255,78,97); fill-rule: nonzero; opacity: 1;" vector-effect="non-scaling-stroke"  transform=" translate(-35.83, -47.98)" d="M 0 0 C 6.09577924 4.03062039 10.88397554 10.03752675 15.79516602 15.38745117 C 22.61533915 22.76891877 29.76606798 29.8196763 36.91625977 36.87890625 C 44.83827319 44.72046467 44.83827319 44.72046467 48.37109375 48.87109375 C 53.58443711 54.96718537 59.42428254 60.49058831 65.125 66.125 C 67.44308585 68.41628717 69.75768961 70.71101306 72.0703125 73.0078125 C 72.59126495 73.52046661 73.11221741 74.03312073 73.6489563 74.56130981 C 82.5028259 83.35640092 82.5028259 83.35640092 83.6640625 87.1953125 C 83.59063534 90.822614 83.22549163 92.71984373 80.9375 95.5625 C 77.01239294 97.48329707 75.21514531 97.09863415 71 96 C 68.43551421 94.23293792 66.36331378 92.08798149 64.21875 89.83984375 C 63.60157104 89.21654678 62.98439209 88.59324982 62.34851074 87.95106506 C 60.38449865 85.96021313 58.44255158 83.94927337 56.5 81.9375 C 55.19535271 80.61130838 53.88937464 79.28642453 52.58203125 77.96289062 C 42.72417302 67.94262817 42.72417302 67.94262817 38.40625 62.87890625 C 33.31178521 56.90933349 27.57760854 51.51217291 22 46 C 8.92458534 33.07798406 8.92458534 33.07798406 3.53417969 26.73486328 C 1.93769112 24.92954059 0.26016778 23.27490938 -1.4921875 21.62109375 C -2.05164062 21.09193359 -2.61109375 20.56277344 -3.1875 20.01757812 C -4.32697788 18.95063646 -5.47571946 17.89351516 -6.6328125 16.84570312 C -10.51851834 13.12795419 -11.87184975 10.5981424 -12 5 C -11.2018293 2.315244 -10.47659001 1.3574425 -8.25 -0.3125 C -4.94258074 -1.32310033 -3.32176871 -1.08596285 0 0 Z" stroke-linecap="round" />
</g>
<g transform="matrix(1 0 0 1 295.06 167.24)"  >
<path style="stroke: none; stroke-width: 1; stroke-dasharray: none; stroke-linecap: butt; stroke-dashoffset: 0; stroke-linejoin: miter; stroke-miterlimit: 4; fill: rgb(255,208,47); fill-rule: nonzero; opacity: 1;" vector-effect="non-scaling-stroke"  transform=" translate(10.46, -18.29)" d="M 0 0 C 4.53708972 3.2667046 8.57249537 7.81915197 9.85546875 13.3359375 C 10.85083358 20.94434266 9.46096585 27.1218218 4.85546875 33.3359375 C -0.45850175 37.84350781 -5.81369536 39.72178711 -12.73828125 39.609375 C -18.42258161 38.96343178 -22.64411734 36.18655707 -26.51953125 32.0859375 C -30.48173324 27.01172787 -31.44671885 22.05558554 -30.95703125 15.7109375 C -29.92024855 8.91942836 -27.20522219 4.82017487 -21.89453125 0.59375 C -15.1472803 -4.25583662 -7.11241149 -4.0033933 0 0 Z" stroke-linecap="round" />
</g>
<g transform="matrix(0.95 0.31 -0.31 0.95 69.22 297.88)"  >
<path style="stroke: none; stroke-width: 1; stroke-dasharray: none; stroke-linecap: butt; stroke-dashoffset: 0; stroke-linejoin: miter; stroke-miterlimit: 4; fill: rgb(91,114,187); fill-rule: nonzero; opacity: 1;" vector-effect="non-scaling-stroke"  transform=" translate(6.67, -15.98)" d="M 0 0 C 5.23730411 2.85671133 8.09712781 6.43557335 9.79296875 12.1484375 C 10.78450431 17.46761266 9.66240698 21.69143017 7.0703125 26.38671875 C 4.42199026 30.03929775 0.97455367 31.75457586 -3.20703125 33.1484375 C -9.139939 33.73009512 -13.40022415 32.56545038 -18.20703125 29.1484375 C -21.99624105 24.38763544 -23.60062166 20.47122683 -23.4765625 14.3359375 C -22.88818896 9.56073197 -20.9965685 5.81678713 -17.4765625 2.53515625 C -11.92876438 -1.39591827 -6.4230061 -2.47825722 0 0 Z" stroke-linecap="round" />
</g>
<g transform="matrix(1 0 0 1 249.7 48.58)"  >
<path style="stroke: none; stroke-width: 1; stroke-dasharray: none; stroke-linecap: butt; stroke-dashoffset: 0; stroke-linejoin: miter; stroke-miterlimit: 4; fill: rgb(255,77,96); fill-rule: nonzero; opacity: 1;" vector-effect="non-scaling-stroke"  transform=" translate(5.53, -16.53)" d="M 0 0 C 4.92006067 2.32584686 7.31231435 5.32143608 10 10 C 11.70108067 15.10324201 11.56521247 19.31873434 9.3125 24.1875 C 7.05618336 28.33077184 4.23077385 30.88461307 0 33 C -5.25575165 33.5238576 -9.64526095 33.66505372 -14.4375 31.3125 C -18.43478798 27.70519134 -21.65221202 24.51132091 -22.203125 18.94921875 C -22.30878583 13.85108367 -21.96124966 10.34316617 -19 6 C -12.9832888 0.07955618 -8.27592101 -0.83110381 0 0 Z" stroke-linecap="round" />
</g>
<g transform="matrix(1 0 0 1 429.87 162.2)"  >
<path style="stroke: none; stroke-width: 1; stroke-dasharray: none; stroke-linecap: butt; stroke-dashoffset: 0; stroke-linejoin: miter; stroke-miterlimit: 4; fill: rgb(255,77,96); fill-rule: nonzero; opacity: 1;" vector-effect="non-scaling-stroke"  transform=" translate(9.22, -14.44)" d="M 0 0 C 3.920909 3.37380541 6.35769549 5.86252365 7.0703125 11.15625 C 7.30011117 17.3454941 7.06273878 21.58251213 2.6875 26.3125 C -1.8351559 30.39392118 -5.10396353 31.63614536 -11.2578125 31.5234375 C -16.02585617 31.03394252 -19.10362677 28.78069043 -22.125 25.25 C -26.01650381 20.02426631 -25.80957253 15.70214145 -25.3125 9.3125 C -23.35170999 3.63652892 -20.14990003 0.96765002 -15.0625 -2 C -9.64861675 -3.35347081 -4.93070503 -2.5118686 0 0 Z" stroke-linecap="round" />
</g>
<g transform="matrix(1 0 0 1 276.33 92.61)"  >
<path style="stroke: none; stroke-width: 1; stroke-dasharray: none; stroke-linecap: butt; stroke-dashoffset: 0; stroke-linejoin: miter; stroke-miterlimit: 4; fill: rgb(255,78,97); fill-rule: nonzero; opacity: 1;" vector-effect="non-scaling-stroke"  transform=" translate(8.24, -12.78)" d="M 0 0 C 2.4375 1.5625 2.4375 1.5625 4 4 C 4.6875 7.25 4.6875 7.25 4 11 C 2.00633051 14.03155037 -0.39805472 16.48444743 -3 19 C -3.598125 19.60714844 -4.19625 20.21429688 -4.8125 20.83984375 C -7.62553714 23.50846157 -9.32303737 24.86726223 -13.1875 25.625 C -16.71933018 24.84014885 -17.90872473 23.9432763 -20 21 C -21 18.125 -21 18.125 -21 15 C -16.78267832 6.56535664 -9.74887672 -0.84042041 0 0 Z" stroke-linecap="round" />
</g>
<g transform="matrix(1 0 0 1 499.12 97.48)"  >
<path style="stroke: none; stroke-width: 1; stroke-dasharray: none; stroke-linecap: butt; stroke-dashoffset: 0; stroke-linejoin: miter; stroke-miterlimit: 4; fill: rgb(91,114,187); fill-rule: nonzero; opacity: 1;" vector-effect="non-scaling-stroke"  transform=" translate(4.32, -13)" d="M 0 0 C 5.1 0.85 5.1 0.85 7.375 3.5625 C 8.5 6.75 8.5 6.75 8.375 10.5625 C 5.38843791 16.47751986 -0.07124642 22.00680864 -5.625 25.5625 C -9.76358566 26.3212407 -11.53050465 26.26409958 -15.0625 24 C -17.32659958 20.46800465 -17.3837407 18.70108566 -16.625 14.5625 C -14.60423784 11.56899273 -12.16976311 9.11241445 -9.625 6.5625 C -9.11195313 5.95535156 -8.59890625 5.34820312 -8.0703125 4.72265625 C -5.45223372 1.71540359 -3.98391033 0.61819298 0 0 Z" stroke-linecap="round" />
</g>
<g transform="matrix(1 0 0 1 137.89 119.85)"  >
<path style="stroke: none; stroke-width: 1; stroke-dasharray: none; stroke-linecap: butt; stroke-dashoffset: 0; stroke-linejoin: miter; stroke-miterlimit: 4; fill: rgb(255,170,0); fill-rule: nonzero; opacity: 1;" vector-effect="non-scaling-stroke"  transform=" translate(9.13, -12.03)" d="M 0 0 C 2.54617692 2.20668667 2.96356829 3.8482012 3.75 7.125 C 2.35297776 14.34294825 -4.02906236 19.9523328 -10 24 C -13.19924966 25.1484486 -14.50252543 25.19667599 -17.6875 23.9375 C -20.66998197 21.43866376 -21.39814123 19.83684965 -22 16 C -20.11382121 11.32278638 -17.5802415 8.19848088 -14 4.6875 C -13.13375 3.82511719 -12.2675 2.96273437 -11.375 2.07421875 C -7.50139169 -1.30881745 -4.83605528 -1.30976497 0 0 Z" stroke-linecap="round" />
</g>
<g transform="matrix(0.95 0.31 -0.31 0.95 23.3 260.13)"  >
<path style="stroke: none; stroke-width: 1; stroke-dasharray: none; stroke-linecap: butt; stroke-dashoffset: 0; stroke-linejoin: miter; stroke-miterlimit: 4; fill: rgb(45,196,113); fill-rule: nonzero; opacity: 1;" vector-effect="non-scaling-stroke"  transform=" translate(7.9, -12.44)" d="M 0 0 C 2.41093768 1.7764804 3.6079196 3.2158392 4.9375 5.875 C 5.06379018 10.16886602 2.38474611 13.52848422 -0.234375 16.73828125 C -1.47960938 18.01251953 -1.47960938 18.01251953 -2.75 19.3125 C -3.56984375 20.17488281 -4.3896875 21.03726562 -5.234375 21.92578125 C -8.58360972 24.43770729 -10.8491095 24.85503293 -15 25 C -17.9375 23.5625 -17.9375 23.5625 -20 21 C -20.85273076 17.46725829 -21.09614829 16.31669612 -20 13 C -14.87144043 5.81788856 -9.38157529 -1.17269691 0 0 Z" stroke-linecap="round" />
</g>
<g transform="matrix(1 0 0 1 199 52.89)"  >
<path style="stroke: none; stroke-width: 1; stroke-dasharray: none; stroke-linecap: butt; stroke-dashoffset: 0; stroke-linejoin: miter; stroke-miterlimit: 4; fill: rgb(255,77,96); fill-rule: nonzero; opacity: 1;" vector-effect="non-scaling-stroke"  transform=" translate(9.25, -11.82)" d="M 0 0 C 1.9375 1.0625 1.9375 1.0625 3 3 C 3.54036719 6.24220315 3.79916058 7.92238158 3 11 C 0.99631828 13.73331372 -1.42817683 15.81155419 -4 18 C -4.9680866 18.94847978 -5.92784144 19.90562071 -6.875 20.875 C -10 24 -10 24 -13.3125 24.3125 C -17 24 -17 24 -19.375 22.25 C -21.02009172 19.9721807 -21.83099388 18.78860101 -22 16 C -20.67094865 11.34832029 -17.907095 8.5162332 -14.5 5.25 C -14.00113281 4.75628906 -13.50226563 4.26257813 -12.98828125 3.75390625 C -8.2952197 -0.83849983 -6.52302738 -1.37326892 0 0 Z" stroke-linecap="round" />
</g>
<g transform="matrix(1 0 0 1 234.1 120.66)"  >
<path style="stroke: none; stroke-width: 1; stroke-dasharray: none; stroke-linecap: butt; stroke-dashoffset: 0; stroke-linejoin: miter; stroke-miterlimit: 4; fill: rgb(255,171,0); fill-rule: nonzero; opacity: 1;" vector-effect="non-scaling-stroke"  transform=" translate(4.83, -7.26)" d="M 0 0 C 2.55078958 2.22165544 2.93332671 3.60829443 3.5 6.9375 C 2.81810427 11.11411135 1.36996335 12.50915752 -2 15 C -5 15.625 -5 15.625 -8 15 C -10.9375 13 -10.9375 13 -13 10 C -13.38022707 7.08303408 -13.0649833 4.73937371 -12 2 C -8.21756349 -1.67118838 -4.91043443 -1.36400956 0 0 Z" stroke-linecap="round" />
</g>
<g transform="matrix(1 -0.08 0.08 1 369.11 162.23)"  >
<path style="stroke: none; stroke-width: 1; stroke-dasharray: none; stroke-linecap: butt; stroke-dashoffset: 0; stroke-linejoin: miter; stroke-miterlimit: 4; fill: rgb(255,170,0); fill-rule: nonzero; opacity: 1;" vector-effect="non-scaling-stroke"  transform=" translate(0.86, -8.31)" d="M 0 0 C 3.39470755 1.15564512 4.87501175 2.06492057 6.9375 5 C 7.5 7.9375 7.5 7.9375 6.9375 11 C 4.48155875 14.32274404 3.0118356 15.77618008 -1.0625 16.625 C -5.17539267 15.76814736 -6.65936932 14.42264067 -9.0625 11 C -9.2144185 6.67032286 -8.73561337 4.76927242 -5.875 1.5 C -3.0625 0 -3.0625 0 0 0 Z" stroke-linecap="round" />
</g>
<g transform="matrix(1 -0.02 0.02 1 203.12 274.9)"  >
<path style="stroke: none; stroke-width: 1; stroke-dasharray: none; stroke-linecap: butt; stroke-dashoffset: 0; stroke-linejoin: miter; stroke-miterlimit: 4; fill: rgb(91,113,188); fill-rule: nonzero; opacity: 1;" vector-effect="non-scaling-stroke"  transform=" translate(3.16, -7.85)" d="M 0 0 C 2.375 1.125 2.375 1.125 4 3 C 5.14364857 6.50718894 5.27206511 8.29583147 3.9375 11.75 C 1.42619398 14.66635538 -0.20266629 15.40433981 -4 16 C -9.54651163 13.90697674 -9.54651163 13.90697674 -11 11 C -11.35519903 7.16385043 -11.54724594 4.85370366 -9.4375 1.5625 C -6.08147594 -0.58879747 -3.91578329 -0.48947291 0 0 Z" stroke-linecap="round" />
</g>
<g transform="matrix(1 -0.03 0.03 1 411.48 258.77)"  >
<path style="stroke: none; stroke-width: 1; stroke-dasharray: none; stroke-linecap: butt; stroke-dashoffset: 0; stroke-linejoin: miter; stroke-miterlimit: 4; fill: rgb(255,78,97); fill-rule: nonzero; opacity: 1;" vector-effect="non-scaling-stroke"  transform=" translate(3.77, -7.85)" d="M 0 0 C 2.4375 1.5625 2.4375 1.5625 4 4 C 4.56921855 7.98452984 4.67149179 10.05493748 2.3125 13.375 C -0.31196417 15.21921807 -1.78929947 15.92169023 -5 16 C -7.81656842 14.75546977 -9.51276191 13.6422684 -11.375 11.1875 C -12.25861973 8.09483095 -11.91373769 6.06754797 -11 3 C -7.85840526 -0.62491701 -4.58722309 -0.57340289 0 0 Z" stroke-linecap="round" />
</g>
<g transform="matrix(1 -0.03 0.03 1 394.6 277.17)"  >
<path style="stroke: none; stroke-width: 1; stroke-dasharray: none; stroke-linecap: butt; stroke-dashoffset: 0; stroke-linejoin: miter; stroke-miterlimit: 4; fill: rgb(255,169,0); fill-rule: nonzero; opacity: 1;" vector-effect="non-scaling-stroke"  transform=" translate(3.14, -7.84)" d="M 0 0 C 2.71604883 1.92982417 3.74692606 3.34200775 4.9375 6.4375 C 5.02226383 9.9128169 4.22474434 11.34465998 2 14 C -0.8125 15.5 -0.8125 15.5 -4 16 C -9.54651163 13.90697674 -9.54651163 13.90697674 -11 11 C -11.35519903 7.16385043 -11.54724594 4.85370366 -9.4375 1.5625 C -6.05782196 -0.60396028 -3.94016013 -0.56288002 0 0 Z" stroke-linecap="round" />
</g>
<g transform="matrix(1 -0.08 0.08 1 358 184.85)"  >
<path style="stroke: none; stroke-width: 1; stroke-dasharray: none; stroke-linecap: butt; stroke-dashoffset: 0; stroke-linejoin: miter; stroke-miterlimit: 4; fill: rgb(44,196,111); fill-rule: nonzero; opacity: 1;" vector-effect="non-scaling-stroke"  transform=" translate(4.59, -7.05)" d="M 0 0 C 1.9375 1.0625 1.9375 1.0625 3 3 C 3.52572226 6.54677411 3.68823879 9.74497633 1.9375 12.9375 C -1.11173251 14.60965977 -3.53241058 14.94021398 -7 15 C -9.9375 13.5625 -9.9375 13.5625 -12 11 C -12.71111828 8.17287123 -12.71111828 5.82712877 -12 3 C -8.3655827 -1.51548816 -5.40521016 -1.50144727 0 0 Z" stroke-linecap="round" />
</g>
<g transform="matrix(1 0 0 1 221.51 98.6)"  >
<path style="stroke: none; stroke-width: 1; stroke-dasharray: none; stroke-linecap: butt; stroke-dashoffset: 0; stroke-linejoin: miter; stroke-miterlimit: 4; fill: rgb(255,77,96); fill-rule: nonzero; opacity: 1;" vector-effect="non-scaling-stroke"  transform=" translate(4.41, -7.23)" d="M 0 0 C 1.875 1.0625 1.875 1.0625 3 3 C 3.75912409 9.83211679 3.75912409 9.83211679 1.375 13.5 C -1.68245535 15.43102443 -3.438173 15.44522837 -7 15 C -10.7 13.6 -10.7 13.6 -12 11 C -12.46440912 3.68555632 -12.46440912 3.68555632 -10.6875 1.0625 C -6.89137087 -1.32765538 -4.22097926 -1.05524482 0 0 Z" stroke-linecap="round" />
</g>
<g transform="matrix(1 -0.02 0.02 1 185.18 256.9)"  >
<path style="stroke: none; stroke-width: 1; stroke-dasharray: none; stroke-linecap: butt; stroke-dashoffset: 0; stroke-linejoin: miter; stroke-miterlimit: 4; fill: rgb(255,170,0); fill-rule: nonzero; opacity: 1;" vector-effect="non-scaling-stroke"  transform=" translate(3.77, -7.55)" d="M 0 0 C 2.4375 1.5625 2.4375 1.5625 4 4 C 4.55802097 7.90614682 4.58392818 10.05111671 2.5 13.4375 C -1.24892004 15.78057502 -3.61035762 15.48773804 -8 15 C -10.49518108 13.47069547 -10.87047343 12.37861613 -11.8125 9.625 C -12.03751456 6.4747962 -11.49549186 4.76665994 -10 2 C -6.2794164 -0.48038907 -4.40203429 -0.46337203 0 0 Z" stroke-linecap="round" />
</g>
<g transform="matrix(0.52 0.85 -0.85 0.52 336.64 107.59)"  >
<path style="stroke: none; stroke-width: 1; stroke-dasharray: none; stroke-linecap: butt; stroke-dashoffset: 0; stroke-linejoin: miter; stroke-miterlimit: 4; fill: rgb(255,171,0); fill-rule: nonzero; opacity: 1;" vector-effect="non-scaling-stroke"  transform=" translate(4.83, -7.26)" d="M 0 0 C 2.55078958 2.22165544 2.93332671 3.60829443 3.5 6.9375 C 2.81810427 11.11411135 1.36996335 12.50915752 -2 15 C -5 15.625 -5 15.625 -8 15 C -10.9375 13 -10.9375 13 -13 10 C -13.38022707 7.08303408 -13.0649833 4.73937371 -12 2 C -8.21756349 -1.67118838 -4.91043443 -1.36400956 0 0 Z" stroke-linecap="round" />
</g>
<g transform="matrix(0.52 0.85 -0.85 0.52 348.93 85.36)"  >
<path style="stroke: none; stroke-width: 1; stroke-dasharray: none; stroke-linecap: butt; stroke-dashoffset: 0; stroke-linejoin: miter; stroke-miterlimit: 4; fill: rgb(255,77,96); fill-rule: nonzero; opacity: 1;" vector-effect="non-scaling-stroke"  transform=" translate(4.41, -7.23)" d="M 0 0 C 1.875 1.0625 1.875 1.0625 3 3 C 3.75912409 9.83211679 3.75912409 9.83211679 1.375 13.5 C -1.68245535 15.43102443 -3.438173 15.44522837 -7 15 C -10.7 13.6 -10.7 13.6 -12 11 C -12.46440912 3.68555632 -12.46440912 3.68555632 -10.6875 1.0625 C -6.89137087 -1.32765538 -4.22097926 -1.05524482 0 0 Z" stroke-linecap="round" />
</g>
<g transform="matrix(0.8 -0.6 0.6 0.8 325.12 30.81)"  >
<path style="stroke: none; stroke-width: 1; stroke-dasharray: none; stroke-linecap: butt; stroke-dashoffset: 0; stroke-linejoin: miter; stroke-miterlimit: 4; fill: rgb(91,114,187); fill-rule: nonzero; opacity: 1;" vector-effect="non-scaling-stroke"  transform=" translate(4.32, -13)" d="M 0 0 C 5.1 0.85 5.1 0.85 7.375 3.5625 C 8.5 6.75 8.5 6.75 8.375 10.5625 C 5.38843791 16.47751986 -0.07124642 22.00680864 -5.625 25.5625 C -9.76358566 26.3212407 -11.53050465 26.26409958 -15.0625 24 C -17.32659958 20.46800465 -17.3837407 18.70108566 -16.625 14.5625 C -14.60423784 11.56899273 -12.16976311 9.11241445 -9.625 6.5625 C -9.11195313 5.95535156 -8.59890625 5.34820312 -8.0703125 4.72265625 C -5.45223372 1.71540359 -3.98391033 0.61819298 0 0 Z" stroke-linecap="round" />
</g>
</svg>