<?xml version="1.0" encoding="UTF-8" standalone="no" ?>
<!DOCTYPE svg PUBLIC "-//W3C//DTD SVG 1.1//EN" "http://www.w3.org/Graphics/SVG/1.1/DTD/svg11.dtd">
<svg xmlns="http://www.w3.org/2000/svg" xmlns:xlink="http://www.w3.org/1999/xlink" version="1.1" width="300" height="200" viewBox="0 0 300 200" xml:space="preserve">
<desc>Created with Fabric.js 5.2.4</desc>
<defs>
</defs>
<g transform="matrix(1 0 0 1 540 540)" id="fddf3949-e745-4896-ba07-0b8bd8569c2a"  >
<rect style="stroke: none; stroke-width: 1; stroke-dasharray: none; stroke-linecap: butt; stroke-dashoffset: 0; stroke-linejoin: miter; stroke-miterlimit: 4; fill: rgb(255,255,255); fill-rule: nonzero; opacity: 1; visibility: hidden;" vector-effect="non-scaling-stroke"  x="-540" y="-540" rx="0" ry="0" width="1080" height="1080" />
</g>
<g transform="matrix(1 0 0 1 540 540)" id="2dcf8b7b-ea32-4ca4-ad8c-88fdb64270fc"  >
</g>
<g transform="matrix(1 0 0 1 540 540)"  >
<rect style="stroke: none; stroke-width: 1; stroke-dasharray: none; stroke-linecap: butt; stroke-dashoffset: 0; stroke-linejoin: miter; stroke-miterlimit: 4; fill: rgb(255,255,255); fill-rule: nonzero; opacity: 1; visibility: hidden;" vector-effect="non-scaling-stroke"  x="-540" y="-540" rx="0" ry="0" width="1080" height="1080" />
</g>
<g transform="matrix(0.64 0 0 0.64 202.09 93.61)"  >
<path style="stroke: none; stroke-width: 1; stroke-dasharray: none; stroke-linecap: butt; stroke-dashoffset: 0; stroke-linejoin: miter; stroke-miterlimit: 4; fill: rgb(255,78,97); fill-rule: nonzero; opacity: 1;" vector-effect="non-scaling-stroke"  transform=" translate(44.79, -80.48)" d="M 0 0 C 2.01672482 1.46038694 2.80084916 2.55574042 3.8125 4.8125 C 4.09241109 8.07812942 3.36575776 10.01009787 2 13 C -0.31003825 14.83693307 -2.42922576 16.31401041 -4.9375 17.8125 C -6.30236449 18.6738302 -7.66432386 19.53977994 -9.0234375 20.41015625 C -9.69729492 20.84086426 -10.37115234 21.27157227 -11.06542969 21.71533203 C -17.05189242 25.69069383 -22.55256045 30.42008609 -27.5625 35.5625 C -28.366875 36.366875 -29.17125 37.17125 -30 38 C -30.66 38 -31.32 38 -32 38 C -32.2578125 38.58007812 -32.515625 39.16015625 -32.78125 39.7578125 C -34.10378606 42.19093974 -35.59500053 43.86850466 -37.5 45.875 C -62.17771367 73.35396765 -74.66532478 109.68373628 -76.1953125 146.27734375 C -76.2272168 146.95812988 -76.25912109 147.63891602 -76.29199219 148.34033203 C -76.36944615 150.18054695 -76.41637346 152.02197625 -76.4609375 153.86328125 C -77.11318493 157.65860505 -78.22815297 159.35525706 -81 162 C -83.94493382 162.85917455 -85.86132349 162.3985621 -89 162 C -91.67431489 160.18836733 -91.95920359 159.12238923 -93 156 C -95.82497423 124.11038707 -84.84984916 90.7131722 -70 63 C -69.43539063 61.94167969 -68.87078125 60.88335937 -68.2890625 59.79296875 C -61.73326497 48.05101215 -53.23071413 37.7409546 -44 28 C -43.15824219 27.10539062 -42.31648438 26.21078125 -41.44921875 25.2890625 C -13.66788836 -3.41697209 -13.66788836 -3.41697209 0 0 Z" stroke-linecap="round" />
</g>
<g transform="matrix(0.64 0 0 0.64 149.92 103.93)"  >
<path style="stroke: none; stroke-width: 1; stroke-dasharray: none; stroke-linecap: butt; stroke-dashoffset: 0; stroke-linejoin: miter; stroke-miterlimit: 4; fill: rgb(92,115,188); fill-rule: nonzero; opacity: 1;" vector-effect="non-scaling-stroke"  transform=" translate(-0.42, -65.92)" d="M 0 0 C 3.5 0.5 3.5 0.5 5.875 2.3125 C 8.34461561 5.63698255 8.62655857 8.28880569 8.64044189 12.30685425 C 8.64900711 13.79150681 8.64900711 13.79150681 8.65774536 15.30615234 C 8.65886322 16.39089844 8.65998108 17.47564453 8.66113281 18.59326172 C 8.66609772 19.73658966 8.67106262 20.8799176 8.67617798 22.05789185 C 8.69080972 25.84849647 8.69760295 29.63905925 8.703125 33.4296875 C 8.70887515 36.05901084 8.7146329 38.68833416 8.72039795 41.31765747 C 8.72996795 46.12863433 8.73586573 50.93960214 8.7388947 55.75058734 C 8.7433758 62.82881471 8.7609277 69.906849 8.7898953 76.98501766 C 8.81412383 83.11834067 8.82183934 89.25158401 8.82357025 95.38495255 C 8.82660115 97.99328793 8.83464429 100.60162241 8.84775543 103.20992661 C 8.86477668 106.85608372 8.86294509 110.50176869 8.85644531 114.14794922 C 8.8656601 115.22864685 8.87487488 116.30934448 8.8843689 117.42279053 C 8.85247109 123.12407552 8.74633068 127.25366932 4.5 131.5 C -2.76699644 132.09565545 -2.76699644 132.09565545 -5.59984589 129.79361725 C -7.86627751 127.05787774 -8.00205096 125.88037402 -8.00793457 122.37634277 C -8.01921387 121.34168381 -8.03049316 120.30702484 -8.04211426 119.24101257 C -8.03401733 118.11153702 -8.02592041 116.98206146 -8.01757812 115.81835938 C -8.0245874 114.62451126 -8.03159668 113.43066315 -8.03881836 112.20063782 C -8.05340583 108.92983015 -8.04998875 105.65967008 -8.03730202 102.38887215 C -8.02716923 98.96476005 -8.03656845 95.54069096 -8.04284668 92.11657715 C -8.05012232 86.36653891 -8.04053776 80.61670624 -8.02148438 74.86669922 C -7.99971553 68.22049216 -8.00676698 61.57477593 -8.02879 54.92858076 C -8.04694656 49.2205865 -8.04950115 43.51273993 -8.03903532 37.80472612 C -8.03280169 34.39632148 -8.03196085 30.98814748 -8.04518127 27.57975769 C -8.05531625 23.78004561 -8.03988644 19.9812819 -8.01757812 16.18164062 C -8.02567505 15.05216507 -8.03377197 13.92268951 -8.04211426 12.75898743 C -8.03083496 11.72432846 -8.01955566 10.68966949 -8.00793457 9.62365723 C -8.00642647 8.72549538 -8.00491837 7.82733353 -8.00336456 6.90195465 C -7.03206054 2.26708683 -4.50935402 0.64419343 0 0 Z" stroke-linecap="round" />
</g>
<g transform="matrix(0.64 0 0 0.64 116.53 113.84)"  >
<path style="stroke: none; stroke-width: 1; stroke-dasharray: none; stroke-linecap: butt; stroke-dashoffset: 0; stroke-linejoin: miter; stroke-miterlimit: 4; fill: rgb(255,170,0); fill-rule: nonzero; opacity: 1;" vector-effect="non-scaling-stroke"  transform=" translate(-6.05, -49.76)" d="M 0 0 C 19.13408517 20.36112069 24.0281147 59.40820765 24.3125 85.875 C 24.34150391 86.79796875 24.37050781 87.7209375 24.40039062 88.671875 C 24.46312091 95.33093595 24.46312091 95.33093595 22.19921875 98.6015625 C 18.96059026 100.66093905 16.75258285 100.53608326 13 100 C 10.31729572 98.09386801 9.22320744 96.89000674 8.42089844 93.69091797 C 7.99850269 90.99042728 7.77975157 88.36209201 7.640625 85.6328125 C 6.2170906 61.31959915 1.98353185 37.98767147 -9.4375 16.25 C -11.76293193 11.79810358 -12.93481722 8.98569185 -12 4 C -9.10873021 -1.23182153 -5.51357351 -1.57530672 0 0 Z" stroke-linecap="round" />
</g>
<g transform="matrix(0.64 0 0 0.64 235.53 104.26)"  >
<path style="stroke: none; stroke-width: 1; stroke-dasharray: none; stroke-linecap: butt; stroke-dashoffset: 0; stroke-linejoin: miter; stroke-miterlimit: 4; fill: rgb(92,115,188); fill-rule: nonzero; opacity: 1;" vector-effect="non-scaling-stroke"  transform=" translate(8.36, -19.78)" d="M 0 0 C 5.74132362 3.43184382 9.42457715 7.68568429 11.578125 14.0546875 C 12.24719517 20.51078016 12.44408528 26.58901951 8.578125 32.0546875 C 3.6943026 37.58111811 -0.64876938 40.52783905 -8.015625 41.1171875 C -13.64753434 40.97090414 -18.02587814 39.23825005 -22.296875 35.6171875 C -28.20284067 28.49528773 -29.25793182 23.33374062 -28.421875 14.0546875 C -26.51499869 7.38606863 -22.43894192 3.4838113 -16.59375 -0.05078125 C -11.51869121 -2.14104827 -5.08045678 -1.983017 0 0 Z" stroke-linecap="round" />
</g>
<g transform="matrix(0.64 0 0 0.64 25.99 106.9)"  >
<path style="stroke: none; stroke-width: 1; stroke-dasharray: none; stroke-linecap: butt; stroke-dashoffset: 0; stroke-linejoin: miter; stroke-miterlimit: 4; fill: rgb(98,211,143); fill-rule: nonzero; opacity: 1;" vector-effect="non-scaling-stroke"  transform=" translate(6.7, -16.11)" d="M 0 0 C 4.37219136 2.27580587 6.87936637 4.92012631 8.99609375 9.31640625 C 10.17098534 14.21854011 10.29871631 18.18157164 8.99609375 23.06640625 C 6.22743432 27.56547782 3.15645816 31.26088179 -1.9921875 32.98046875 C -6.72139376 33.77020028 -10.6222435 33.13520966 -15.00390625 31.31640625 C -19.35100189 27.75969164 -22.53952504 23.85333711 -23.2890625 18.14453125 C -23.48241349 13.13421876 -22.8926209 9.55318773 -20.00390625 5.31640625 C -14.40510108 -0.32829077 -7.74042986 -2.64049752 0 0 Z" stroke-linecap="round" />
</g>
<g transform="matrix(0.64 0 0 0.64 277.49 107.36)"  >
<path style="stroke: none; stroke-width: 1; stroke-dasharray: none; stroke-linecap: butt; stroke-dashoffset: 0; stroke-linejoin: miter; stroke-miterlimit: 4; fill: rgb(255,170,0); fill-rule: nonzero; opacity: 1;" vector-effect="non-scaling-stroke"  transform=" translate(7.75, -12.51)" d="M 0 0 C 2.3125 1.0625 2.3125 1.0625 4 3 C 5.22355106 7.05301289 5.43889641 9.10312473 3.5625 12.9375 C -6.32322819 24.75215076 -6.32322819 24.75215076 -12.375 25.3125 C -16 25 -16 25 -18.4375 23.4375 C -20.70159958 19.90550465 -20.7587407 18.13858566 -20 14 C -18.00633051 10.96844963 -15.60194528 8.51555257 -13 6 C -12.401875 5.39285156 -11.80375 4.78570312 -11.1875 4.16015625 C -7.57574964 0.73383057 -5.19262334 -1.03852467 0 0 Z" stroke-linecap="round" />
</g>
<g transform="matrix(0.64 0 0 0.64 76.55 128.56)"  >
<path style="stroke: none; stroke-width: 1; stroke-dasharray: none; stroke-linecap: butt; stroke-dashoffset: 0; stroke-linejoin: miter; stroke-miterlimit: 4; fill: rgb(255,77,96); fill-rule: nonzero; opacity: 1;" vector-effect="non-scaling-stroke"  transform=" translate(8.11, -12.46)" d="M 0 0 C 2.4375 1.5625 2.4375 1.5625 4 4 C 4.6875 7.25 4.6875 7.25 4 11 C 1.96880685 13.98437876 -0.4534656 16.4534656 -3 19 C -3.825 19.969375 -4.65 20.93875 -5.5 21.9375 C -8.70667368 24.58300579 -10.87882369 24.92506952 -15 25 C -17.3125 24.5 -17.3125 24.5 -19 23 C -20.64090035 19.29013833 -21.30192729 17.06835811 -20.1875 13.125 C -14.88230887 5.54615553 -9.70545633 -0.83667727 0 0 Z" stroke-linecap="round" />
</g>
<g transform="matrix(0.64 0 0 0.64 149.89 41.98)"  >
<path style="stroke: none; stroke-width: 1; stroke-dasharray: none; stroke-linecap: butt; stroke-dashoffset: 0; stroke-linejoin: miter; stroke-miterlimit: 4; fill: rgb(91,114,188); fill-rule: nonzero; opacity: 1;" vector-effect="non-scaling-stroke"  transform=" translate(3.14, -7.84)" d="M 0 0 C 2.71604883 1.92982417 3.74692606 3.34200775 4.9375 6.4375 C 5.02226383 9.9128169 4.22474434 11.34465998 2 14 C -0.8125 15.5 -0.8125 15.5 -4 16 C -9.54651163 13.90697674 -9.54651163 13.90697674 -11 11 C -11.35519903 7.16385043 -11.54724594 4.85370366 -9.4375 1.5625 C -6.05782196 -0.60396028 -3.94016013 -0.56288002 0 0 Z" stroke-linecap="round" />
</g>
<g transform="matrix(0.64 0 0 0.64 140.63 25.61)"  >
<path style="stroke: none; stroke-width: 1; stroke-dasharray: none; stroke-linecap: butt; stroke-dashoffset: 0; stroke-linejoin: miter; stroke-miterlimit: 4; fill: rgb(255,170,0); fill-rule: nonzero; opacity: 1;" vector-effect="non-scaling-stroke"  transform=" translate(5.19, -6.38)" d="M 0 0 C 2.22474434 2.65534002 3.02226383 4.0871831 2.9375 7.5625 C 1.74692606 10.65799225 0.71604883 12.07017583 -2 14 C -5.94016013 14.56288002 -8.05782196 14.60396028 -11.4375 12.4375 C -13.60396028 9.05782196 -13.56288002 6.94016013 -13 3 C -9.09871611 -2.11202717 -5.75428574 -2.63738096 0 0 Z" stroke-linecap="round" />
</g>
</svg>